<?xml version="1.0" encoding="UTF-8" standalone="no"?>
<!DOCTYPE svg PUBLIC "-//W3C//DTD SVG 1.1//EN" "http://www.w3.org/Graphics/SVG/1.1/DTD/svg11.dtd">
<svg width="100%" height="100%" viewBox="0 0 783 184" version="1.1" xmlns="http://www.w3.org/2000/svg" xmlns:xlink="http://www.w3.org/1999/xlink" xml:space="preserve" xmlns:serif="http://www.serif.com/" style="fill-rule:evenodd;clip-rule:evenodd;stroke-linejoin:round;stroke-miterlimit:2;">
    <g transform="matrix(1,0,0,1,-269.366,-1531.27)">
        <g transform="matrix(1,0,0,1,13.0162,1572.1)">
            <path d="M434.631,36.586C434.631,43.947 433.722,50.522 431.902,56.312C430.082,62.102 427.622,67.209 424.52,71.634C421.419,76.059 417.842,79.843 413.789,82.986C409.736,86.128 405.497,88.692 401.072,90.677C396.647,92.662 392.181,94.11 387.674,95.02C383.166,95.929 378.927,96.384 374.957,96.384L302.008,96.384L302.008,64.128L374.957,64.128C379.093,63.797 382.835,62.949 386.185,61.585C389.535,60.22 392.409,58.38 394.807,56.064C397.206,53.748 399.067,50.957 400.39,47.69C401.713,44.423 402.375,40.722 402.375,36.586L402.375,21.947C401.961,17.894 401.093,14.172 399.77,10.781C398.446,7.39 396.647,4.495 394.373,2.097C392.098,-0.302 389.348,-2.183 386.123,-3.548C382.897,-4.913 379.175,-5.595 374.957,-5.595L302.256,-5.595C297.956,-5.595 294.689,-4.479 292.455,-2.246C290.222,-0.012 289.106,3.213 289.106,7.431L289.106,140.054L256.849,140.054L256.849,7.431C256.849,-0.839 258.359,-7.87 261.378,-13.659C264.397,-19.449 268.16,-24.122 272.667,-27.678C277.175,-31.235 282.076,-33.819 287.369,-35.432C292.662,-37.045 297.542,-37.852 302.008,-37.852L374.957,-37.852C382.236,-37.852 388.769,-36.921 394.559,-35.06C400.349,-33.199 405.456,-30.718 409.881,-27.616C414.306,-24.515 418.069,-20.938 421.171,-16.885C424.272,-12.832 426.836,-8.593 428.862,-4.168C430.889,0.256 432.357,4.723 433.267,9.23C434.176,13.738 434.631,17.977 434.631,21.947L434.631,36.586Z" style="stroke:black;stroke-width:1px;"/>
        </g>
        <g transform="matrix(1,0,0,1,306.016,1572.1)">
            <path d="M435.128,21.947C435.128,29.308 434.218,35.883 432.398,41.673C430.579,47.462 428.118,52.57 425.016,56.994C421.915,61.419 418.338,65.203 414.285,68.346C410.232,71.489 405.994,74.074 401.569,76.1C397.144,78.126 392.677,79.595 388.17,80.504C383.662,81.414 379.423,81.869 375.453,81.869L442.819,140.054L392.946,140.054L325.704,81.869L302.505,81.869L302.505,49.613L375.453,49.613C379.506,49.282 383.207,48.434 386.557,47.069C389.907,45.705 392.802,43.864 395.241,41.549C397.681,39.233 399.563,36.441 400.886,33.174C402.21,29.907 402.871,26.165 402.871,21.947L402.871,1.6C402.871,-0.219 402.644,-1.605 402.189,-2.556C401.734,-3.507 401.155,-4.21 400.452,-4.665C399.749,-5.12 399.005,-5.388 398.219,-5.471C397.433,-5.554 396.709,-5.595 396.048,-5.595L289.602,-5.595L289.602,140.054L257.346,140.054L257.346,-21.599C257.346,-23.832 257.759,-25.941 258.586,-27.926C259.413,-29.911 260.551,-31.648 261.998,-33.137C263.445,-34.626 265.162,-35.784 267.147,-36.611C269.132,-37.438 271.282,-37.852 273.598,-37.852L396.048,-37.852C403.243,-37.852 409.323,-36.549 414.285,-33.944C419.248,-31.338 423.28,-28.071 426.381,-24.143C429.483,-20.214 431.716,-15.975 433.081,-11.426C434.445,-6.877 435.128,-2.618 435.128,1.352L435.128,21.947Z" style="stroke:black;stroke-width:1px;"/>
        </g>
        <g transform="matrix(1,0,0,1,606.832,1572.1)">
            <path d="M444.06,68.098C444.06,78.933 442.199,88.899 438.477,97.997C434.755,107.095 429.586,114.952 422.969,121.569C416.353,128.186 408.516,133.334 399.46,137.015C390.403,140.695 380.54,142.536 369.871,142.536L326.201,142.536C315.531,142.536 305.647,140.695 296.55,137.015C287.452,133.334 279.594,128.186 272.978,121.569C266.361,114.952 261.171,107.095 257.408,97.997C253.645,88.899 251.763,78.933 251.763,68.098L251.763,34.105C251.763,23.353 253.645,13.407 257.408,4.268C261.171,-4.872 266.361,-12.729 272.978,-19.304C279.594,-25.879 287.452,-31.028 296.55,-34.75C305.647,-38.472 315.531,-40.333 326.201,-40.333L369.871,-40.333C380.54,-40.333 390.403,-38.472 399.46,-34.75C408.516,-31.028 416.353,-25.879 422.969,-19.304C429.586,-12.729 434.755,-4.872 438.477,4.268C442.199,13.407 444.06,23.353 444.06,34.105L444.06,68.098ZM411.804,34.105C411.804,27.736 410.791,21.967 408.764,16.798C406.738,11.629 403.884,7.204 400.204,3.523C396.523,-0.157 392.098,-3.011 386.929,-5.037C381.76,-7.063 376.074,-8.076 369.871,-8.076L326.201,-8.076C319.915,-8.076 314.187,-7.063 309.018,-5.037C303.849,-3.011 299.403,-0.157 295.681,3.523C291.959,7.204 289.085,11.629 287.059,16.798C285.032,21.967 284.019,27.736 284.019,34.105L284.019,68.098C284.019,74.467 285.032,80.236 287.059,85.405C289.085,90.574 291.959,94.999 295.681,98.68C299.403,102.36 303.849,105.213 309.018,107.24C314.187,109.266 319.915,110.279 326.201,110.279L369.622,110.279C375.908,110.279 381.636,109.266 386.805,107.24C391.974,105.213 396.42,102.36 400.142,98.68C403.864,94.999 406.738,90.574 408.764,85.405C410.791,80.236 411.804,74.467 411.804,68.098L411.804,34.105Z" style="stroke:black;stroke-width:1px;"/>
        </g>
    </g>
</svg>
