<?xml version="1.0" encoding="UTF-8" standalone="no"?>
<!DOCTYPE svg PUBLIC "-//W3C//DTD SVG 1.1//EN" "http://www.w3.org/Graphics/SVG/1.1/DTD/svg11.dtd">
<svg width="100%" height="100%" viewBox="0 0 666 189" version="1.1" xmlns="http://www.w3.org/2000/svg" xmlns:xlink="http://www.w3.org/1999/xlink" xml:space="preserve" xmlns:serif="http://www.serif.com/" style="fill-rule:evenodd;clip-rule:evenodd;stroke-linejoin:round;stroke-miterlimit:2;">
    <g transform="matrix(1,0,0,1,-87.3639,-355.084)">
        <g transform="matrix(1,0,0,1,-157.612,400)">
            <g transform="matrix(254.08,0,0,254.08,238.612,140.054)">
                <path d="M0.486,0.014C0.393,0.014 0.311,-0.001 0.242,-0.031C0.173,-0.061 0.12,-0.104 0.082,-0.16C0.044,-0.215 0.025,-0.281 0.025,-0.357C0.025,-0.395 0.03,-0.43 0.039,-0.463C0.049,-0.496 0.063,-0.527 0.082,-0.554C0.101,-0.582 0.123,-0.606 0.15,-0.628C0.177,-0.649 0.208,-0.668 0.242,-0.683C0.276,-0.697 0.313,-0.709 0.354,-0.717C0.395,-0.724 0.439,-0.728 0.486,-0.728C0.579,-0.728 0.661,-0.713 0.73,-0.683C0.798,-0.652 0.852,-0.609 0.89,-0.554C0.927,-0.498 0.946,-0.433 0.946,-0.357C0.946,-0.319 0.942,-0.284 0.932,-0.251C0.922,-0.218 0.908,-0.187 0.89,-0.16C0.871,-0.132 0.848,-0.108 0.821,-0.086C0.795,-0.065 0.764,-0.047 0.73,-0.032C0.696,-0.017 0.658,-0.005 0.617,0.003C0.577,0.01 0.533,0.014 0.486,0.014ZM0.486,-0.131C0.513,-0.131 0.538,-0.133 0.561,-0.138C0.584,-0.143 0.605,-0.149 0.624,-0.158C0.644,-0.167 0.661,-0.178 0.677,-0.191C0.692,-0.204 0.705,-0.219 0.715,-0.236C0.726,-0.253 0.734,-0.271 0.739,-0.292C0.745,-0.312 0.747,-0.334 0.747,-0.357C0.747,-0.404 0.737,-0.444 0.715,-0.478C0.694,-0.512 0.664,-0.538 0.624,-0.556C0.585,-0.574 0.539,-0.583 0.486,-0.583C0.459,-0.583 0.434,-0.581 0.411,-0.576C0.388,-0.571 0.366,-0.565 0.347,-0.556C0.328,-0.547 0.31,-0.536 0.295,-0.523C0.28,-0.51 0.267,-0.495 0.256,-0.478C0.246,-0.461 0.238,-0.443 0.232,-0.423C0.227,-0.403 0.224,-0.381 0.224,-0.357C0.224,-0.31 0.235,-0.27 0.256,-0.236C0.277,-0.202 0.308,-0.176 0.347,-0.158C0.387,-0.14 0.433,-0.131 0.486,-0.131Z" style="fill-rule:nonzero;"/>
            </g>
            <g transform="matrix(254.08,0,0,254.08,465.112,140.054)">
                <path d="M0.062,-0L0.062,-0.714L0.278,-0.714L0.743,-0.166L0.69,-0.153L0.69,-0.714L0.863,-0.714L0.863,-0L0.647,-0L0.192,-0.537L0.234,-0.553L0.234,-0L0.062,-0Z" style="fill-rule:nonzero;"/>
            </g>
            <g transform="matrix(254.08,0,0,254.08,679.775,140.054)">
                <path d="M0.016,-0L0.397,-0.415L0.375,-0.33L0.032,-0.714L0.274,-0.714L0.532,-0.414L0.411,-0.418L0.679,-0.714L0.895,-0.714L0.536,-0.328L0.542,-0.409L0.907,-0L0.666,-0L0.392,-0.319L0.523,-0.325L0.233,-0L0.016,-0Z" style="fill-rule:nonzero;"/>
            </g>
            <g transform="matrix(254.08,0,0,254.08,914.355,140.054)">
            </g>
        </g>
    </g>
</svg>
