<?xml version="1.0" encoding="UTF-8" standalone="no"?><!DOCTYPE svg PUBLIC "-//W3C//DTD SVG 1.1//EN" "http://www.w3.org/Graphics/SVG/1.1/DTD/svg11.dtd"><svg width="100%" height="100%" viewBox="0 0 5689 5689" version="1.1" xmlns="http://www.w3.org/2000/svg" xmlns:xlink="http://www.w3.org/1999/xlink" xml:space="preserve" xmlns:serif="http://www.serif.com/" style="fill-rule:evenodd;clip-rule:evenodd;stroke-linejoin:round;stroke-miterlimit:2;"><g id="Background"><path d="M4526.3,3141.75c0,189.526 -32.552,363.86 -97.656,523.004c-65.104,159.143 -155.527,296.586 -271.268,412.326c-115.74,115.741 -252.821,205.802 -411.241,270.183c-158.42,64.38 -330.946,96.571 -517.578,96.571l-763.889,-0c-186.632,-0 -359.52,-32.191 -518.663,-96.571c-159.144,-64.381 -296.586,-154.442 -412.326,-270.183c-115.741,-115.74 -206.525,-253.183 -272.353,-412.326c-65.827,-159.144 -98.741,-333.478 -98.741,-523.004l-0,-594.618c-0,-188.078 32.914,-362.051 98.741,-521.918c65.828,-159.867 156.612,-297.309 272.353,-412.326c115.74,-115.018 253.182,-205.078 412.326,-270.183c159.143,-65.104 332.031,-97.656 518.663,-97.656l763.889,0c186.632,0 359.158,32.552 517.578,97.656c158.42,65.105 295.501,155.165 411.241,270.183c115.741,115.017 206.164,252.459 271.268,412.326c65.104,159.867 97.656,333.84 97.656,521.918l0,594.618Zm-564.236,-594.618c-0,-111.4 -17.723,-212.312 -53.168,-302.734c-35.446,-90.422 -85.359,-167.824 -149.74,-232.205c-64.381,-64.381 -141.782,-114.294 -232.205,-149.739c-90.422,-35.446 -189.887,-53.169 -298.394,-53.169l-763.889,0c-109.954,0 -210.142,17.723 -300.564,53.169c-90.423,35.445 -168.186,85.358 -233.29,149.739c-65.104,64.381 -115.379,141.783 -150.825,232.205c-35.445,90.422 -53.168,191.334 -53.168,302.734l-0,594.618c-0,111.401 17.723,212.312 53.168,302.735c35.446,90.422 85.721,167.824 150.825,232.205c65.104,64.38 142.867,114.294 233.29,149.739c90.422,35.446 190.61,53.169 300.564,53.169l759.549,-0c109.953,-0 210.142,-17.723 300.564,-53.169c90.422,-35.445 168.186,-85.359 233.29,-149.739c65.104,-64.381 115.379,-141.783 150.825,-232.205c35.445,-90.423 53.168,-191.334 53.168,-302.735l-0,-594.618Z" style="fill-rule:nonzero;"/></g></svg>