<?xml version="1.0" encoding="UTF-8" standalone="no"?>
<!DOCTYPE svg PUBLIC "-//W3C//DTD SVG 1.1//EN" "http://www.w3.org/Graphics/SVG/1.1/DTD/svg11.dtd">
<svg width="100%" height="100%" viewBox="0 0 197 744" version="1.1" xmlns="http://www.w3.org/2000/svg" xmlns:xlink="http://www.w3.org/1999/xlink" xml:space="preserve" xmlns:serif="http://www.serif.com/" style="fill-rule:evenodd;clip-rule:evenodd;stroke-linejoin:round;stroke-miterlimit:2;">
    <g transform="matrix(1,0,0,1,-5096.8,-2275.31)">
        <g transform="matrix(1.56327,0,0,1.39669,1310.02,395.263)">
            <g transform="matrix(0.639686,0,0,0.715979,2262.61,1374.95)">
                <path d="M444.06,68.098C444.06,78.933 442.199,88.899 438.477,97.997C434.755,107.095 429.586,114.952 422.969,121.569C416.353,128.186 408.516,133.334 399.46,137.015C390.403,140.695 380.54,142.536 369.871,142.536L326.201,142.536C315.531,142.536 305.647,140.695 296.55,137.015C287.452,133.334 279.594,128.186 272.978,121.569C266.361,114.952 261.171,107.095 257.408,97.997C253.645,88.899 251.763,78.933 251.763,68.098L251.763,34.105C251.763,23.353 253.645,13.407 257.408,4.268C261.171,-4.872 266.361,-12.729 272.978,-19.304C279.594,-25.879 287.452,-31.028 296.55,-34.75C305.647,-38.472 315.531,-40.333 326.201,-40.333L369.871,-40.333C380.54,-40.333 390.403,-38.472 399.46,-34.75C408.516,-31.028 416.353,-25.879 422.969,-19.304C429.586,-12.729 434.755,-4.872 438.477,4.268C442.199,13.407 444.06,23.353 444.06,34.105L444.06,68.098ZM411.804,34.105C411.804,27.736 410.791,21.967 408.764,16.798C406.738,11.629 403.884,7.204 400.204,3.523C396.523,-0.157 392.098,-3.011 386.929,-5.037C381.76,-7.063 376.074,-8.076 369.871,-8.076L326.201,-8.076C319.915,-8.076 314.187,-7.063 309.018,-5.037C303.849,-3.011 299.403,-0.157 295.681,3.523C291.959,7.204 289.085,11.629 287.059,16.798C285.032,21.967 284.019,27.736 284.019,34.105L284.019,68.098C284.019,74.467 285.032,80.236 287.059,85.405C289.085,90.574 291.959,94.999 295.681,98.68C299.403,102.36 303.849,105.213 309.018,107.24C314.187,109.266 319.915,110.279 326.201,110.279L369.622,110.279C375.908,110.279 381.636,109.266 386.805,107.24C391.974,105.213 396.42,102.36 400.142,98.68C403.864,94.999 406.738,90.574 408.764,85.405C410.791,80.236 411.804,74.467 411.804,68.098L411.804,34.105Z"/>
            </g>
        </g>
        <g transform="matrix(1.56327,0,0,1.39669,1310.02,395.263)">
            <g transform="matrix(0.639686,0,0,0.715979,2263.69,1577.48)">
                <path d="M435.128,126.283C435.128,128.599 434.693,130.75 433.825,132.735C432.956,134.72 431.799,136.436 430.351,137.883C428.904,139.331 427.188,140.468 425.203,141.295C423.218,142.122 421.108,142.536 418.875,142.536C416.89,142.536 414.885,142.163 412.858,141.419C410.832,140.675 409.033,139.475 407.462,137.821L289.602,14.751L289.602,140.054L257.346,140.054L257.346,-24.081C257.346,-27.389 258.276,-30.387 260.137,-33.075C261.998,-35.763 264.376,-37.769 267.271,-39.092C270.331,-40.333 273.474,-40.643 276.699,-40.023C279.925,-39.402 282.696,-37.893 285.012,-35.494L402.871,87.452L402.871,-37.852L435.128,-37.852L435.128,126.283Z"/>
            </g>
        </g>
        <g transform="matrix(1.56327,0,0,1.39669,1310.02,395.263)">
            <g transform="matrix(0.639686,0,0,0.715979,2268.45,1778.23)">
                <path d="M338.607,25.669L392.946,-37.852L436.989,-37.852L360.442,51.35L436.492,140.054L392.698,140.054L338.607,77.031L284.764,140.054L240.845,140.054L316.772,51.35L240.597,-37.852L284.267,-37.852L338.607,25.669Z"/>
            </g>
        </g>
    </g>
</svg>
