<?xml version="1.0" encoding="UTF-8" standalone="no"?>
<!DOCTYPE svg PUBLIC "-//W3C//DTD SVG 1.1//EN" "http://www.w3.org/Graphics/SVG/1.1/DTD/svg11.dtd">
<svg width="100%" height="100%" viewBox="0 0 5689 5689" version="1.1" xmlns="http://www.w3.org/2000/svg" xmlns:xlink="http://www.w3.org/1999/xlink" xml:space="preserve" xmlns:serif="http://www.serif.com/" style="fill-rule:evenodd;clip-rule:evenodd;stroke-linejoin:round;stroke-miterlimit:2;">
    <rect id="Artboard1" x="0" y="0" width="5688.89" height="5688.89" style="fill:none;"/>
    <clipPath id="_clip1">
        <rect id="Artboard11" serif:id="Artboard1" x="0" y="0" width="5688.89" height="5688.89"/>
    </clipPath>
    <g clip-path="url(#_clip1)">
        <g id="Background" transform="matrix(5.55556,0,0,5.55556,0,0)">
            <g transform="matrix(0.18,0,0,0.18,0,0)">
                <path d="M4577.78,0C5191.43,0 5688.89,497.461 5688.89,1111.11L5688.89,4577.78C5688.89,5191.43 5191.43,5688.89 4577.78,5688.89L1111.11,5688.89C497.461,5688.89 0,5191.43 -0,4577.78L0,1111.11C0,497.461 497.461,0 1111.11,0L4577.78,0Z" style="fill:white;"/>
            </g>
            <g transform="matrix(5.46463,5.46463,-5.46463,5.46463,-1191.72,-4817.6)">
                <path d="M682.704,338.683C682.704,343.098 681.945,347.158 680.429,350.865C678.913,354.572 676.807,357.773 674.111,360.469C671.415,363.164 668.222,365.262 664.533,366.762C660.843,368.261 656.824,369.011 652.477,369.011L634.685,369.011C630.338,369.011 626.312,368.261 622.605,366.762C618.898,365.262 615.697,363.164 613.001,360.469C610.305,357.773 608.191,354.572 606.658,350.865C605.124,347.158 604.358,343.098 604.358,338.683L604.358,324.834C604.358,320.453 605.124,316.401 606.658,312.678C608.191,308.954 610.305,305.753 613.001,303.074C615.697,300.395 618.898,298.297 622.605,296.781C626.312,295.265 630.338,294.507 634.685,294.507L652.477,294.507C656.824,294.507 660.843,295.265 664.533,296.781C668.222,298.297 671.415,300.395 674.111,303.074C676.807,305.753 678.913,308.954 680.429,312.678C681.945,316.401 682.704,320.453 682.704,324.834L682.704,338.683ZM669.562,324.834C669.562,322.239 669.149,319.889 668.323,317.783C667.498,315.677 666.335,313.874 664.836,312.374C663.336,310.875 661.533,309.712 659.427,308.887C657.321,308.061 655.005,307.648 652.477,307.648L634.685,307.648C632.124,307.648 629.791,308.061 627.685,308.887C625.579,309.712 623.767,310.875 622.251,312.374C620.735,313.874 619.564,315.677 618.738,317.783C617.913,319.889 617.5,322.239 617.5,324.834L617.5,338.683C617.5,341.278 617.913,343.629 618.738,345.735C619.564,347.841 620.735,349.643 622.251,351.143C623.767,352.643 625.579,353.805 627.685,354.631C629.791,355.456 632.124,355.869 634.685,355.869L652.376,355.869C654.937,355.869 657.271,355.456 659.377,354.631C661.483,353.805 663.294,352.643 664.811,351.143C666.327,349.643 667.498,347.841 668.323,345.735C669.149,343.629 669.562,341.278 669.562,338.683L669.562,324.834Z" style="fill-rule:nonzero;"/>
            </g>
        </g>
    </g>
</svg>
