<?xml version="1.0" encoding="UTF-8"?>
<svg version="1.1" xmlns="http://www.w3.org/2000/svg" width="1024" height="1024">
<path d="M0 0 C337.92 0 675.84 0 1024 0 C1024 337.92 1024 675.84 1024 1024 C686.08 1024 348.16 1024 0 1024 C0 686.08 0 348.16 0 0 Z " fill="#FEFEFE" transform="translate(0,0)"/>
<path d="M0 0 C0.66161133 0.32049316 1.32322266 0.64098633 2.00488281 0.97119141 C44.20849738 21.72185057 74.66098489 53.74513983 98 94 C98.3928418 94.67434082 98.78568359 95.34868164 99.19042969 96.04345703 C111.21037096 116.94257913 118.89051001 139.51029689 124 163 C124.22445801 163.97308105 124.44891602 164.94616211 124.68017578 165.94873047 C132.01753923 198.93026362 131.45975184 239.04971757 124 272 C123.7426709 273.14339844 123.4853418 274.28679687 123.22021484 275.46484375 C121.38597538 283.38205309 119.29994954 291.20594573 117 299 C116.76587402 299.79905762 116.53174805 300.59811523 116.29052734 301.42138672 C108.39754999 327.59966337 94.18621899 352.83256973 77 374 C53.84710998 370.84031148 32.39133565 356.78948229 15 342 C15.56698421 337.82861617 18.03579533 335.00370269 20.5 331.75 C26.04316849 324.19694594 30.67343809 316.30204241 35 308 C35.47348877 307.09411133 35.47348877 307.09411133 35.95654297 306.16992188 C45.20955967 288.16779007 50.2363244 268.79040168 54 249 C54.2475 247.74960937 54.495 246.49921875 54.75 245.2109375 C56.58262099 234.54610147 56.23928664 223.77845572 56 213 C55.97099609 211.49228027 55.97099609 211.49228027 55.94140625 209.95410156 C55.65616148 196.76153081 54.87469728 183.90122855 52 171 C51.85643066 170.33581055 51.71286133 169.67162109 51.56494141 168.98730469 C47.41852151 150.67133527 38.41865003 131.88030394 27 117 C26.03513672 115.72576172 26.03513672 115.72576172 25.05078125 114.42578125 C20.32302113 108.36050156 15.23728474 102.62758499 10 97 C9.34902344 96.28328125 8.69804688 95.5665625 8.02734375 94.828125 C-18.70651621 66.60046555 -59.28523296 47.96187389 -98.1484375 46.8125 C-108.60947165 46.63131959 -118.68464976 47.15630618 -129 49 C-130.09828125 49.18304688 -131.1965625 49.36609375 -132.328125 49.5546875 C-159.01848554 54.58240658 -183.57833137 67.29299427 -204 85 C-204.85335937 85.71929687 -205.70671875 86.43859375 -206.5859375 87.1796875 C-212.82844574 92.57705616 -217.956946 98.48419572 -223 105 C-223.71800781 105.87914062 -224.43601562 106.75828125 -225.17578125 107.6640625 C-255.86383592 146.3648064 -263.63088302 199.94560206 -258.28149414 247.94287109 C-255.61672626 266.78347979 -249.42336559 284.99811231 -241 302 C-240.51877686 302.99483398 -240.51877686 302.99483398 -240.02783203 304.00976562 C-235.3748504 313.56621951 -229.79776097 321.84651926 -223 330 C-222.50918945 330.59232422 -222.01837891 331.18464844 -221.51269531 331.79492188 C-195.14564307 363.47561401 -161.16025966 383.70265531 -120 389 C-115.2513797 389.21243828 -110.50296422 389.18631921 -105.75 389.1875 C-105.08414886 389.19221313 -104.41829773 389.19692627 -103.73226929 389.20178223 C-96.24902212 389.2534722 -89.04436467 389.00840529 -81.66552734 387.67114258 C-72.67913299 386.06276633 -72.67913299 386.06276633 -69.23291016 387.98632812 C-65.39096644 391.10897271 -62.76138712 394.93058741 -60 399 C-57.34296882 402.42190299 -54.57055725 405.57948812 -51.25 408.375 C-49.15333038 410.15716917 -47.0701117 411.93535701 -45.046875 413.80078125 C-34.66932279 423.36634941 -23.08468195 431.72870832 -11 439 C-26.11198364 455.58481174 -63.8067656 460.96956212 -85.12109375 462.11387634 C-87.24642805 462.17874847 -89.36988945 462.21602886 -91.49609375 462.23828125 C-92.27868561 462.2480751 -93.06127747 462.25786896 -93.86758423 462.26795959 C-120.32889129 462.53059514 -144.60441439 459.88138864 -170 452 C-170.72380859 451.78150391 -171.44761719 451.56300781 -172.19335938 451.33789062 C-190.66005333 445.68126901 -209.07144309 436.9120262 -225 426 C-225.84280518 425.42451416 -225.84280518 425.42451416 -226.70263672 424.83740234 C-239.30930739 416.17782432 -250.87077399 406.47268174 -262 396 C-262.65871094 395.38382813 -263.31742187 394.76765625 -263.99609375 394.1328125 C-307.62919318 352.01125231 -332.13896728 288.66119007 -333.28515625 228.734375 C-333.56691928 209.36450587 -333.48800284 190.11317609 -330 171 C-329.82307617 170.02772461 -329.64615234 169.05544922 -329.46386719 168.05371094 C-322.38374225 130.50092394 -307.77745348 94.09005176 -284 64 C-283.28199219 63.08863281 -282.56398438 62.17726563 -281.82421875 61.23828125 C-276.17970265 54.21020703 -270.1789554 47.55650707 -264 41 C-263.31035156 40.2678125 -262.62070312 39.535625 -261.91015625 38.78125 C-199.0007661 -26.05787604 -93.38788265 -41.0670651 0 0 Z " fill="#030404" transform="translate(527,288)"/>
<path d="M0 0 C6.98084124 1.90209358 13.47486294 4.31670135 20 7.4375 C20.90210205 7.86853027 21.8042041 8.29956055 22.73364258 8.74365234 C55.98588752 25.09148287 55.98588752 25.09148287 61 37 C60.41605469 37.5878125 60.41605469 37.5878125 59.8203125 38.1875 C42.16737723 57.06068425 31.16652803 84.22888509 25 109 C24.65291992 110.36656738 24.65291992 110.36656738 24.29882812 111.76074219 C17.76677649 138.49966899 16.99309105 169.04716686 23 196 C23.19867676 196.91555664 23.39735352 197.83111328 23.60205078 198.77441406 C26.66000094 212.47677951 30.95049924 225.33241469 37 238 C37.32226562 238.67498535 37.64453125 239.3499707 37.9765625 240.04541016 C45.15172993 254.78585829 54.64816886 267.24789273 66 279 C67.29357422 280.38832031 67.29357422 280.38832031 68.61328125 281.8046875 C88.24159515 302.33444989 114.31452716 316.20678432 142 322 C142.90234375 322.22429687 143.8046875 322.44859375 144.734375 322.6796875 C173.98970171 329.31210629 208.05214889 319.37425449 233 304 C242.54608027 297.95185167 250.87837165 290.82347753 259 283 C259.68191406 282.38125 260.36382813 281.7625 261.06640625 281.125 C275.32988113 267.78463101 285.35736024 250.28527953 294 233 C319.08 233 344.16 233 370 233 C361.3807569 267.4769724 343.7178802 302.89750022 317.4609375 327.546875 C315.88935645 328.95564544 315.88935645 328.95564544 315 331 C314.34 331 313.68 331 313 331 C312.67 331.99 312.34 332.98 312 334 C310.50390625 335.5078125 310.50390625 335.5078125 308.5625 337.125 C306.28815765 339.04360163 304.04414708 340.95837329 301.87890625 343 C283.06681594 360.7361822 260.10384643 373.92799066 236 383 C234.92516357 383.41306396 234.92516357 383.41306396 233.82861328 383.83447266 C215.57958526 390.75134209 195.46297623 395.09876428 175.91796875 395.203125 C175.06431229 395.20882507 174.21065582 395.21452515 173.33113098 395.22039795 C171.52846493 395.22979683 169.7257821 395.23636145 167.9230957 395.24023438 C165.23290853 395.2498379 162.54352079 395.28086742 159.85351562 395.3125 C144.34306545 395.40806704 129.28103048 393.61888204 114.3125 389.4375 C112.9653894 389.06395386 112.9653894 389.06395386 111.59106445 388.68286133 C87.86698259 381.78744314 65.88233577 370.54104651 46 356 C45.12601563 355.36360596 45.12601563 355.36360596 44.234375 354.71435547 C35.99304239 348.66803375 28.37660053 342.06440189 21 335 C20.50113281 334.52836426 20.00226563 334.05672852 19.48828125 333.57080078 C12.00071494 326.46579329 5.46666993 318.91542208 -0.73583984 310.66992188 C-1.90540893 309.12495229 -3.10198857 307.60053065 -4.30078125 306.078125 C-14.61689856 292.81192796 -22.90966995 278.20683891 -30 263 C-30.50917969 261.92234375 -31.01835937 260.8446875 -31.54296875 259.734375 C-59.09006622 198.58424978 -60.50429984 125.07125605 -37.171875 62.37890625 C-30.64849343 45.75185389 -22.8393126 29.26484754 -12 15 C-11.51160645 14.35659668 -11.02321289 13.71319336 -10.52001953 13.05029297 C-2.2875385 2.2875385 -2.2875385 2.2875385 0 0 Z " fill="#030403" transform="translate(462,352)"/>
<path d="M0 0 C0.79630829 -0.00701431 1.59261658 -0.01402863 2.41305542 -0.02125549 C4.9681369 -0.03865509 7.52298645 -0.04510771 10.078125 -0.046875 C10.9521698 -0.04754974 11.8262146 -0.04822449 12.72674561 -0.04891968 C25.83449847 -0.03283747 38.46648629 0.48825287 51.328125 3.203125 C52.13636719 3.3587793 52.94460938 3.51443359 53.77734375 3.67480469 C89.35959406 10.5843812 123.41377952 27.15766073 151.328125 50.203125 C151.89869629 50.67218262 152.46926758 51.14124023 153.05712891 51.62451172 C181.90429371 75.48419289 203.90717818 105.70871727 216.640625 141.015625 C216.88337158 141.68480957 217.12611816 142.35399414 217.3762207 143.04345703 C218.68254259 146.81316836 219.64546112 150.54541129 220.40698242 154.46362305 C220.58122238 155.35413864 220.75546234 156.24465424 220.9349823 157.16215515 C221.06471939 157.8356752 221.19445648 158.50919525 221.328125 159.203125 C211.48039639 159.64502682 201.63505092 159.98172275 191.77939892 160.18755627 C187.20132173 160.28640678 182.63005952 160.42014763 178.0559082 160.63647461 C148.49919046 161.99848715 148.49919046 161.99848715 141.65231323 157.40985107 C137.68505368 153.03677768 135.83209957 148.22894104 134.195755 142.63078308 C132.73723668 138.54979952 130.17639331 135.32946735 127.515625 131.953125 C126.72539696 130.93079773 126.72539696 130.93079773 125.91920471 129.88781738 C116.44784922 117.72838138 105.91479034 107.10968577 93.328125 98.203125 C92.48580322 97.60443604 92.48580322 97.60443604 91.62646484 96.99365234 C69.80591331 81.71863689 43.01896863 72.01042443 16.2265625 72.19140625 C-4.13500892 72.28547038 -4.13500892 72.28547038 -8.07421875 69.0859375 C-10.29789982 66.2470246 -11.93850154 63.36048262 -13.671875 60.203125 C-20.31541812 52.75584543 -27.83204844 46.3446785 -35.671875 40.203125 C-36.67992187 39.38972656 -37.68796875 38.57632813 -38.7265625 37.73828125 C-45.10227114 32.64910655 -51.6480707 28.20705778 -58.73535156 24.15820312 C-61.73539182 22.43515263 -64.40223093 20.84552083 -66.671875 18.203125 C-47.86627348 5.00536352 -22.64569937 0.13452616 0 0 Z " fill="#030404" transform="translate(610.671875,264.796875)"/>
<path d="M0 0 C7.858125 -0.1546875 7.858125 -0.1546875 15.875 -0.3125 C17.50679199 -0.35802002 19.13858398 -0.40354004 20.81982422 -0.45043945 C29.17193226 -0.52975429 36.01360133 -0.09017037 43 5 C46.98280076 9.08237078 49.28350094 13.00385933 49.375 18.75 C49.23241515 25.19483535 47.23317018 29.76682982 42.6875 34.3125 C36.1027562 38.44710657 31.21176079 39.42598978 23.5625 39.1875 C20.736875 39.125625 17.91125 39.06375 15 39 C15 45.93 15 52.86 15 60 C10.05 60 5.1 60 0 60 C0 40.2 0 20.4 0 0 Z " fill="#020202" transform="translate(851,705)"/>
<path d="M0 0 C4.56238861 3.7512973 8.12202942 8.36608826 10 14 C10.86286022 23.42073619 9.70861115 30.51062861 3.625 37.875 C-4.21188478 44.21914482 -12.2257835 44.80304596 -22 44 C-29.65039214 42.12135341 -33.89411616 37.6695357 -38.1328125 31.296875 C-40.49087094 25.05120671 -40.210833 15.61690889 -38.08984375 9.28125 C-36.88127846 7.26049774 -35.65184876 5.67352656 -34 4 C-33.51917969 3.50242187 -33.03835938 3.00484375 -32.54296875 2.4921875 C-24.13829432 -5.26938519 -9.81991585 -5.14670642 0 0 Z " fill="#050505" transform="translate(986,722)"/>
<path d="M0 0 C2.1346875 0.0309375 2.1346875 0.0309375 4.3125 0.0625 C4.3125 4.3525 4.3125 8.6425 4.3125 13.0625 C3.3225 12.7325 2.3325 12.4025 1.3125 12.0625 C-5.08544425 11.5335464 -5.08544425 11.5335464 -10.6875 14.0625 C-14.77298048 19.94559189 -14.2433262 26.49264779 -14.375 33.4375 C-14.40916016 34.65050781 -14.44332031 35.86351562 -14.47851562 37.11328125 C-14.5607175 40.09603494 -14.6257923 43.07925195 -14.6875 46.0625 C-19.3075 46.0625 -23.9275 46.0625 -28.6875 46.0625 C-28.6875 31.2125 -28.6875 16.3625 -28.6875 1.0625 C-24.0675 1.0625 -19.4475 1.0625 -14.6875 1.0625 C-14.3575 2.7125 -14.0275 4.3625 -13.6875 6.0625 C-12.759375 5.258125 -11.83125 4.45375 -10.875 3.625 C-7.385387 0.60066873 -4.57664052 -0.06632812 0 0 Z " fill="#010101" transform="translate(938.6875,718.9375)"/>
<path d="M0 0 C3.43229611 2.05303624 5.70955241 4.12865724 7 8 C7.50588195 14.19705385 7.76262822 19.75919641 4 25 C0.85350943 27.38699285 -2.14113846 27.47251366 -6 27 C-9.33761045 24.84909549 -10.73470933 23.79587201 -12 20 C-12.17143087 17.71238153 -12.26643463 15.41857031 -12.3125 13.125 C-12.34988281 11.91070313 -12.38726563 10.69640625 -12.42578125 9.4453125 C-11.92772309 5.41515381 -10.83027718 3.84603011 -8 1 C-5.09704195 -0.45147903 -3.22738221 -0.37239025 0 0 Z " fill="#F9F9F9" transform="translate(974,729)"/>
<path d="M0 0 C12.05122556 -0.60864776 12.05122556 -0.60864776 16.3125 2.125 C18.28569575 5.48674091 18.57104749 7.16582397 18 11 C16.79293121 14.34265205 16.07943151 14.94704566 13 17 C8.65339644 17.27064779 4.35919984 17.08632079 0 17 C0 11.39 0 5.78 0 0 Z " fill="#FAFAFA" transform="translate(866,716)"/>
</svg>
