<svg version="1.1" id="Layer_1" xmlns="http://www.w3.org/2000/svg" xmlns:xlink="http://www.w3.org/1999/xlink" x="0px" y="0px"
	 width="100%" viewBox="0 0 1024 1024" enable-background="new 0 0 1024 1024" xml:space="preserve">
<path fill="#000000" opacity="1.000000" stroke="none" 
	d="
M392.246948,749.237183 
	C380.144257,746.669373 368.482941,744.235962 357.045776,740.665283 
	C330.825867,732.479431 307.084503,719.726562 285.672394,702.667358 
	C255.973022,679.005554 233.472992,649.558350 217.478577,615.247681 
	C206.540131,591.782898 199.643021,567.094849 196.482681,541.286926 
	C194.327698,523.688904 193.949478,506.057373 194.900497,488.496124 
	C196.939865,450.837830 206.500336,414.857178 224.749786,381.867584 
	C251.867981,332.845917 291.848053,298.111847 344.803711,278.808868 
	C364.570740,271.603546 384.876373,267.300140 405.874695,265.511963 
	C461.166992,260.803375 511.203247,275.344971 556.996948,305.845978 
	C601.768127,335.665863 629.003235,378.283936 645.621521,428.445587 
	C652.602905,449.518768 655.456665,471.266327 656.556946,493.473175 
	C658.486084,532.405823 652.723328,569.934570 638.460571,606.099487 
	C630.799072,625.525879 620.712341,643.697998 607.557068,660.068909 
	C605.506958,662.620178 603.721863,663.444580 600.391235,662.512085 
	C579.706970,656.721069 561.232910,646.921997 544.944763,632.921936 
	C542.252197,630.607605 542.049194,628.924316 544.396057,625.952393 
	C564.410339,600.607361 576.882141,571.794861 581.607971,539.948364 
	C586.048035,510.027435 586.702026,479.890381 577.486084,450.693146 
	C568.387451,421.867737 551.826660,397.589539 528.950623,377.566467 
	C511.808960,362.562653 492.718048,351.106750 471.299042,343.506897 
	C451.941956,336.638672 432.102203,334.005554 411.547852,336.181091 
	C380.433929,339.474274 352.625763,350.524384 328.407288,370.381500 
	C300.669983,393.123718 283.364410,422.346710 274.264008,456.858063 
	C268.336029,479.338531 266.923431,502.245789 268.582489,525.129395 
	C271.381897,563.741028 285.581635,597.928833 311.800507,626.869385 
	C334.461426,651.882751 361.570648,669.198853 394.914551,676.120117 
	C414.401398,680.164978 433.899231,679.339722 453.368835,676.219177 
	C456.038727,675.791199 457.654846,676.042786 459.372528,678.159302 
	C474.743073,697.099121 493.280121,712.436401 513.702698,725.606262 
	C514.675293,726.233398 515.583008,726.968262 516.474731,727.708618 
	C516.695618,727.891968 516.735535,728.293213 517.034485,729.024597 
	C510.654205,733.457886 503.343567,736.216675 496.169434,739.069031 
	C467.956238,750.286438 438.447754,752.681885 408.460938,751.207092 
	C403.182068,750.947449 397.939178,749.955627 392.246948,749.237183 
z"/>
<path fill="#000000" opacity="1.000000" stroke="none" 
	d="
M482.343201,497.198395 
	C481.771790,518.677124 482.453766,539.596008 488.383453,559.922485 
	C504.439758,614.962036 538.372253,653.858521 593.337585,672.043335 
	C629.380188,683.967590 663.630432,676.326477 695.445679,656.967590 
	C722.245056,640.660706 741.139771,617.078613 755.203308,589.398315 
	C756.382751,587.076965 757.403198,585.609619 760.254578,585.619446 
	C783.420044,585.699768 806.585815,585.668091 829.751465,585.701782 
	C830.718079,585.703186 831.684204,586.013672 833.019958,586.243774 
	C832.554749,592.589783 830.256653,598.309937 828.107178,603.960388 
	C815.622070,636.781006 797.368652,665.895142 771.712280,690.093750 
	C740.682129,719.360779 704.550171,738.868713 662.259888,745.950928 
	C641.237976,749.471436 620.104858,749.991150 598.874023,746.628174 
	C548.616333,738.667358 507.344086,714.485779 473.422272,677.299622 
	C442.401001,643.293213 423.046387,603.314026 414.647461,558.060791 
	C411.031433,538.577820 409.009247,518.888977 409.823242,499.098846 
	C411.868042,449.384796 424.340973,402.872406 454.878418,362.629669 
	C463.954163,350.669464 459.713318,350.524658 475.574554,357.105469 
	C492.291962,364.041534 507.585754,373.403259 521.381409,385.188416 
	C524.065613,387.481445 524.454529,389.114471 522.000488,392.094971 
	C507.202789,410.067657 497.231293,430.620209 490.373474,452.761444 
	C485.935516,467.089996 483.684326,481.823181 482.343201,497.198395 
z"/>
<path fill="#000000" opacity="1.000000" stroke="none" 
	d="
M674.842224,347.297058 
	C654.677002,339.411102 634.104004,336.402069 612.925415,337.402496 
	C609.107361,337.582825 606.533386,336.444458 603.992126,333.407257 
	C588.236389,314.576538 569.363037,299.431732 548.140991,287.159821 
	C546.865479,286.422272 545.366394,285.948029 544.498047,284.059357 
	C549.974060,280.072205 556.111633,277.202576 562.467346,274.896637 
	C588.793701,265.345276 616.008484,264.018646 643.585754,266.571716 
	C683.457275,270.262970 719.397278,284.492889 751.989380,307.453766 
	C791.336609,335.173645 818.254395,371.913055 831.806335,418.238678 
	C832.397766,420.260590 833.272156,422.300018 832.847168,424.498169 
	C830.976562,425.836304 828.913635,425.315063 826.972839,425.318695 
	C805.140198,425.359467 783.306335,425.236664 761.475647,425.448761 
	C757.218872,425.490112 755.039368,424.101807 753.042175,420.313507 
	C735.520508,387.078217 709.981384,362.290405 674.842224,347.297058 
z"/>
<path fill="#000000" opacity="1.000000" stroke="none" 
	d="
M874.952393,705.646606 
	C878.752686,705.804321 882.051025,705.492371 885.362976,706.330200 
	C896.705444,709.199463 902.151001,716.357727 901.269592,727.586731 
	C900.479309,737.654114 892.796753,744.672607 881.762268,745.284424 
	C878.607971,745.459290 875.425537,745.536499 872.278381,745.325256 
	C868.679626,745.083618 867.034424,746.272827 867.295166,750.100769 
	C867.543457,753.746033 867.361694,757.421997 867.327820,761.084106 
	C867.317078,762.243469 867.635254,763.848022 867.016296,764.487305 
	C863.208313,768.421082 858.319641,765.736572 853.928955,766.245056 
	C851.154724,766.566406 850.836060,764.319641 850.833130,762.184326 
	C850.822937,754.693054 850.826111,747.201843 850.827759,739.710571 
	C850.829895,729.888672 850.923584,720.065674 850.791443,710.245605 
	C850.745056,706.796631 852.048157,705.501282 855.484314,705.593994 
	C861.805725,705.764648 868.134949,705.645020 874.952393,705.646606 
M867.390991,730.908630 
	C869.614258,736.001526 873.893127,733.593689 877.164490,733.136658 
	C882.643799,732.371033 884.570679,729.260010 883.887085,724.019165 
	C883.261169,719.220703 878.925659,717.114441 871.269104,717.325073 
	C865.366882,717.487488 867.831177,721.770630 867.401611,724.564514 
	C867.127563,726.347046 867.358032,728.207092 867.390991,730.908630 
z"/>
<path fill="#000000" opacity="1.000000" stroke="none" 
	d="
M948.806030,753.819702 
	C943.651794,736.858887 950.058289,723.291016 965.003235,720.283569 
	C974.526672,718.367065 984.229614,718.884216 991.364624,726.732910 
	C998.092163,734.133301 998.690186,743.153809 995.956665,752.468384 
	C994.911377,756.030212 992.892517,759.046021 990.151550,761.613281 
	C980.800171,770.372131 955.451843,770.607605 948.806030,753.819702 
M976.639343,731.825867 
	C970.244995,729.399353 965.729248,731.051086 964.020813,736.994568 
	C962.637817,741.806152 962.540222,746.823425 964.551453,751.597473 
	C965.929138,754.867615 968.824463,756.298157 972.089966,756.456360 
	C975.013245,756.597900 977.590210,755.281555 979.187927,752.625366 
	C982.269104,747.502686 982.406799,736.186340 976.639343,731.825867 
z"/>
<path fill="#000000" opacity="1.000000" stroke="none" 
	d="
M910.623535,736.023865 
	C910.615112,732.369202 910.902954,729.174133 910.528198,726.058655 
	C909.972351,721.437683 911.998718,720.459229 916.195679,720.566467 
	C924.712585,720.784302 924.717773,720.581543 926.726562,724.639526 
	C930.675598,721.332947 935.041626,719.326599 940.349609,719.603394 
	C943.338867,719.759277 944.635193,720.870422 944.388123,723.821960 
	C944.143982,726.738098 944.930237,729.727966 943.902466,732.917419 
	C942.433777,732.583984 941.166199,732.314819 939.907959,732.007446 
	C932.574463,730.216003 926.865601,734.044678 926.310669,741.643311 
	C925.851440,747.932068 925.879578,754.273254 926.026550,760.583374 
	C926.122437,764.700989 925.001282,766.627075 920.414062,766.459839 
	C909.323730,766.055481 910.713013,767.587708 910.636414,756.473633 
	C910.590576,749.822388 910.625061,743.170593 910.623535,736.023865 
z"/>
</svg>