<?xml version="1.0" encoding="UTF-8" standalone="no"?>
<!DOCTYPE svg PUBLIC "-//W3C//DTD SVG 1.1//EN" "http://www.w3.org/Graphics/SVG/1.1/DTD/svg11.dtd">
<svg width="100%" height="100%" viewBox="0 0 767 183" version="1.1" xmlns="http://www.w3.org/2000/svg" xmlns:xlink="http://www.w3.org/1999/xlink" xml:space="preserve" xmlns:serif="http://www.serif.com/" style="fill-rule:evenodd;clip-rule:evenodd;stroke-linejoin:round;stroke-miterlimit:2;">
    <g transform="matrix(1,0,0,1,-3546.72,-2998.07)">
        <g transform="matrix(1.56327,0,0,1.39669,1310.02,395.263)">
            <g transform="matrix(0.639686,0,0,0.715979,1269.74,1892.43)">
                <g transform="matrix(254.08,0,0,254.08,457.211,140.054)">
                </g>
                <text x="238.612px" y="140.054px" style="font-family:'Audiowide-Regular', 'Audiowide';font-size:254.08px;">O</text>
            </g>
        </g>
        <g transform="matrix(1.56327,0,0,1.39669,1310.02,395.263)">
            <g transform="matrix(0.639686,0,0,0.715979,1453.14,1892.43)">
                <g transform="matrix(254.08,0,0,254.08,453.861,140.054)">
                </g>
                <text x="238.612px" y="140.054px" style="font-family:'Audiowide-Regular', 'Audiowide';font-size:254.08px;">N</text>
            </g>
        </g>
        <g transform="matrix(1.56327,0,0,1.39669,1310.02,395.263)">
            <g transform="matrix(0.639686,0,0,0.715979,1641.55,1892.43)">
                <g transform="matrix(254.08,0,0,254.08,438.601,140.054)">
                </g>
                <text x="238.612px" y="140.054px" style="font-family:'Audiowide-Regular', 'Audiowide';font-size:254.08px;">X</text>
            </g>
        </g>
    </g>
</svg>
