<?xml version="1.0" encoding="UTF-8" standalone="no"?>
<!DOCTYPE svg PUBLIC "-//W3C//DTD SVG 1.1//EN" "http://www.w3.org/Graphics/SVG/1.1/DTD/svg11.dtd">
<svg width="100%" height="100%" viewBox="0 0 519 190" version="1.1" xmlns="http://www.w3.org/2000/svg" xmlns:xlink="http://www.w3.org/1999/xlink" xml:space="preserve" xmlns:serif="http://www.serif.com/" style="fill-rule:evenodd;clip-rule:evenodd;stroke-linejoin:round;stroke-miterlimit:2;">
    <g transform="matrix(1,0,0,1,-938.652,-1393.72)">
        <g transform="matrix(1,0,0,1,688.388,1441)">
            <g transform="matrix(254.08,0,0,254.08,238.612,140.054)">
                <path d="M0.385,0.01C0.321,0.01 0.263,-0.005 0.212,-0.034C0.161,-0.064 0.12,-0.106 0.09,-0.162C0.061,-0.217 0.046,-0.285 0.046,-0.363C0.046,-0.443 0.061,-0.51 0.09,-0.566C0.12,-0.622 0.161,-0.664 0.212,-0.693C0.263,-0.723 0.321,-0.737 0.385,-0.737C0.45,-0.737 0.507,-0.723 0.559,-0.693C0.61,-0.664 0.65,-0.622 0.68,-0.566C0.71,-0.51 0.725,-0.443 0.725,-0.363C0.725,-0.284 0.71,-0.217 0.68,-0.161C0.65,-0.106 0.61,-0.063 0.559,-0.034C0.507,-0.005 0.45,0.01 0.385,0.01ZM0.385,-0.123C0.423,-0.123 0.456,-0.132 0.484,-0.15C0.512,-0.169 0.534,-0.196 0.55,-0.232C0.566,-0.268 0.573,-0.311 0.573,-0.363C0.573,-0.416 0.566,-0.46 0.55,-0.496C0.534,-0.532 0.512,-0.559 0.484,-0.577C0.456,-0.596 0.423,-0.605 0.385,-0.605C0.348,-0.605 0.315,-0.596 0.287,-0.577C0.258,-0.559 0.236,-0.531 0.221,-0.495C0.205,-0.459 0.197,-0.415 0.197,-0.363C0.197,-0.311 0.205,-0.268 0.221,-0.232C0.236,-0.196 0.258,-0.169 0.287,-0.15C0.315,-0.132 0.348,-0.123 0.385,-0.123Z" style="fill-rule:nonzero;"/>
            </g>
            <g transform="matrix(254.08,0,0,254.08,414.042,140.054)">
                <path d="M0.066,-0L0.066,-0.728L0.232,-0.728L0.462,-0.359C0.473,-0.34 0.485,-0.32 0.497,-0.298C0.51,-0.276 0.522,-0.251 0.534,-0.224C0.547,-0.197 0.559,-0.167 0.572,-0.133L0.557,-0.133C0.554,-0.16 0.552,-0.189 0.551,-0.219C0.549,-0.25 0.547,-0.279 0.546,-0.307C0.545,-0.335 0.544,-0.359 0.544,-0.378L0.544,-0.728L0.696,-0.728L0.696,-0L0.53,-0L0.321,-0.334C0.306,-0.359 0.291,-0.383 0.278,-0.407C0.265,-0.43 0.252,-0.457 0.238,-0.485C0.223,-0.514 0.207,-0.548 0.187,-0.587L0.206,-0.587C0.208,-0.552 0.21,-0.519 0.212,-0.486C0.214,-0.454 0.215,-0.425 0.217,-0.399C0.218,-0.372 0.218,-0.351 0.218,-0.334L0.218,-0L0.066,-0Z" style="fill-rule:nonzero;"/>
            </g>
            <g transform="matrix(254.08,0,0,254.08,587.355,140.054)">
                <path d="M0.025,-0L0.325,-0.427L0.325,-0.314L0.048,-0.728L0.221,-0.728L0.301,-0.605C0.316,-0.582 0.328,-0.562 0.338,-0.543C0.347,-0.525 0.356,-0.507 0.364,-0.49C0.372,-0.473 0.381,-0.455 0.39,-0.437L0.351,-0.437C0.361,-0.455 0.37,-0.473 0.378,-0.49C0.386,-0.507 0.395,-0.524 0.405,-0.543C0.415,-0.562 0.427,-0.582 0.442,-0.605L0.523,-0.728L0.692,-0.728L0.42,-0.322L0.42,-0.43L0.713,-0L0.537,-0L0.435,-0.152C0.422,-0.173 0.411,-0.19 0.403,-0.205C0.395,-0.219 0.387,-0.233 0.381,-0.245C0.374,-0.258 0.366,-0.273 0.357,-0.289L0.381,-0.289C0.372,-0.273 0.365,-0.259 0.358,-0.246C0.351,-0.233 0.343,-0.219 0.335,-0.205C0.327,-0.19 0.316,-0.173 0.302,-0.152L0.197,-0L0.025,-0Z" style="fill-rule:nonzero;"/>
            </g>
            <g transform="matrix(254.08,0,0,254.08,774.94,140.054)">
            </g>
        </g>
    </g>
</svg>
